<?xml version="1.0" standalone="no"?>
<!DOCTYPE svg PUBLIC "-//W3C//DTD SVG 20010904//EN"
 "http://www.w3.org/TR/2001/REC-SVG-20010904/DTD/svg10.dtd">
<svg version="1.0" xmlns="http://www.w3.org/2000/svg"
 width="477.000000pt" height="204.000000pt" viewBox="0 0 477.000000 204.000000"
 preserveAspectRatio="xMidYMid meet">

<g transform="translate(0.000000,204.000000) scale(0.100000,-0.100000)"
fill="#000000" stroke="none">
<path d="M82 1972 c-41 -96 -55 -172 -56 -302 0 -157 17 -227 91 -377 l55
-111 -41 -93 c-23 -51 -40 -93 -39 -94 70 -39 72 -56 24 -148 l-33 -64 52 -22
c91 -38 169 -134 209 -258 19 -58 23 -60 52 -38 51 39 77 2 94 -131 14 -114
32 -168 74 -225 51 -70 108 -93 226 -94 86 0 99 3 142 28 85 50 127 134 147
294 11 84 30 138 53 145 7 3 27 -4 45 -14 l32 -20 7 29 c34 138 137 267 236
294 l39 10 -29 52 c-16 29 -32 65 -36 80 -8 34 1 67 17 67 40 1 39 17 -4 114
l-42 97 36 74 c90 181 119 403 79 595 -11 52 -26 109 -33 127 l-14 32 -218
-155 -219 -154 -61 22 c-90 33 -274 33 -364 0 l-63 -23 -207 149 c-115 82
-213 152 -219 155 -7 4 -20 -12 -32 -41z m261 -241 l193 -139 61 29 c124 59
267 61 380 3 26 -13 52 -24 56 -24 4 0 91 59 193 131 102 72 188 128 192 124
4 -4 7 -84 7 -178 0 -162 -2 -177 -28 -252 -16 -44 -46 -113 -69 -154 l-40
-73 36 -80 c34 -75 35 -81 21 -108 -17 -33 -20 -106 -5 -144 9 -24 3 -32 -63
-99 -46 -45 -83 -93 -100 -129 -21 -45 -33 -58 -50 -58 -69 0 -121 -78 -139
-211 -14 -107 -24 -150 -41 -173 -13 -18 -16 -18 -70 7 -75 34 -77 58 -7 125
48 46 49 49 40 83 -14 47 -12 290 3 369 11 56 15 65 32 62 11 -2 43 -4 72 -4
98 -1 184 77 169 155 -5 28 -2 34 24 49 37 21 38 29 1 51 -26 15 -37 16 -131
2 -114 -16 -156 -37 -189 -95 -49 -87 -87 -339 -75 -491 l7 -89 -44 0 -44 0 3
142 c2 111 -2 166 -17 243 -44 226 -94 285 -244 285 -27 0 -56 4 -66 9 -12 7
-26 4 -49 -11 -37 -23 -40 -33 -12 -50 16 -10 20 -24 20 -62 0 -43 4 -53 38
-86 45 -45 124 -67 181 -50 25 7 37 6 42 -2 25 -41 38 -309 19 -408 -12 -62
-1 -86 55 -123 36 -23 46 -56 23 -75 -7 -6 -33 -18 -56 -28 -37 -14 -45 -15
-53 -3 -13 20 -25 73 -37 166 -17 124 -60 193 -130 208 -27 6 -37 16 -64 68
-19 38 -57 88 -99 129 -63 62 -68 70 -59 94 14 37 12 111 -4 142 -13 25 -11
34 21 109 l36 82 -41 63 c-83 127 -122 257 -122 403 0 79 16 205 26 205 2 0
90 -63 197 -139z m750 -739 c15 -16 15 -20 2 -40 -28 -39 -135 -42 -135 -3 0
24 22 42 63 51 49 12 53 11 70 -8z m-509 -21 c16 -17 17 -23 6 -35 -33 -40
-154 3 -136 49 5 15 14 17 58 12 32 -4 60 -14 72 -26z m237 -836 l44 -25 -67
0 c-91 0 -108 7 -66 30 44 23 40 23 89 -5z"/>
<path d="M1224 1646 l-152 -111 40 -50 c22 -28 63 -83 91 -124 l50 -75 24 30
c67 83 105 213 101 347 l-3 95 -151 -112z"/>
<path d="M184 1724 c-13 -50 3 -197 28 -270 22 -63 85 -174 98 -174 3 0 23 28
45 62 21 33 60 88 87 122 56 72 68 52 -119 189 -131 96 -133 97 -139 71z"/>
<path d="M1830 1295 l0 -55 50 0 50 0 0 -270 0 -270 70 0 70 0 0 270 0 270 50
0 50 0 0 55 0 55 -170 0 -170 0 0 -55z"/>
<path d="M2230 1025 l0 -325 70 0 70 0 0 325 0 325 -70 0 -70 0 0 -325z"/>
<path d="M2470 1025 l0 -325 60 0 60 0 1 168 0 167 67 -167 67 -168 48 0 47 0
0 325 0 325 -60 0 -59 0 -3 -152 -3 -152 -64 152 -64 152 -48 0 -49 0 0 -325z"/>
<path d="M3080 1295 l0 -55 50 0 50 0 0 -270 0 -270 70 0 70 0 0 270 0 270 50
0 50 0 0 55 0 55 -170 0 -170 0 0 -55z"/>
<path d="M3480 1026 l0 -326 70 0 70 0 0 145 c0 144 0 145 23 145 21 0 25 -11
56 -145 l34 -145 74 0 c71 0 74 1 68 21 -4 12 -24 82 -46 156 l-38 135 29 24
c38 32 53 82 48 155 -9 119 -60 150 -255 157 l-133 5 0 -327z m244 202 c9 -12
16 -42 16 -66 0 -56 -33 -92 -85 -92 l-35 0 0 90 0 90 44 0 c35 0 48 -5 60
-22z"/>
<path d="M4050 1346 c0 -2 -27 -147 -60 -321 -33 -174 -60 -319 -60 -321 0 -2
29 -4 64 -4 71 0 67 -4 81 93 l7 47 48 0 c54 0 54 0 65 -87 l7 -53 64 0 c35 0
64 3 64 6 0 6 -108 587 -115 622 -5 21 -11 22 -85 22 -44 0 -80 -2 -80 -4z
m113 -383 l5 -43 -34 0 c-39 0 -39 -1 -24 117 20 151 24 146 53 -74z"/>
<path d="M4400 1025 l0 -325 60 0 60 0 1 168 0 167 67 -167 67 -168 48 0 47 0
0 325 0 325 -60 0 -59 0 -3 -152 -3 -152 -64 152 -64 152 -48 0 -49 0 0 -325z"/>
</g>
</svg>
